<?xml version="1.0" standalone="no"?>
<!DOCTYPE svg PUBLIC "-//W3C//DTD SVG 20010904//EN"
 "http://www.w3.org/TR/2001/REC-SVG-20010904/DTD/svg10.dtd">
<svg version="1.0" xmlns="http://www.w3.org/2000/svg"
 width="512.000000pt" height="512.000000pt" viewBox="0 0 512.000000 512.000000"
 preserveAspectRatio="xMidYMid meet">
<metadata>
Created by potrace 1.11, written by Peter Selinger 2001-2013
</metadata>
<g transform="translate(0.000000,512.000000) scale(0.100000,-0.100000)"
fill="#000000" stroke="none">
<path d="M3386 4689 c2 -3 -15 -9 -39 -12 -134 -19 -357 -124 -482 -226 -16
-14 -233 -228 -481 -476 -369 -368 -461 -465 -506 -535 -131 -202 -189 -394
-188 -625 0 -60 1 -119 4 -130 2 -11 7 -40 11 -65 47 -296 233 -578 491 -746
80 -53 187 -106 255 -127 12 -4 57 35 146 126 110 111 135 144 165 207 50 106
52 120 20 121 -146 6 -296 74 -405 183 -73 73 -138 193 -162 296 -33 147 -3
324 77 457 42 70 865 895 946 949 127 85 311 120 461 88 62 -13 193 -68 227
-96 143 -116 219 -235 248 -388 34 -176 -11 -362 -118 -493 -23 -29 -160 -169
-304 -313 l-261 -261 11 -39 c11 -42 13 -54 24 -154 17 -164 -2 -350 -52 -514
-13 -41 100 65 533 499 316 317 462 471 495 520 135 206 196 407 196 640 0
524 -346 961 -868 1096 -71 19 -114 23 -267 24 -100 0 -180 -2 -177 -6z"/>
<path d="M2533 3257 c-137 -140 -174 -189 -201 -273 l-19 -59 51 -8 c84 -12
176 -39 170 -48 -3 -5 2 -6 10 -3 18 7 145 -75 196 -126 115 -115 179 -276
180 -446 0 -39 -3 -74 -6 -77 -4 -4 -8 -21 -10 -40 -4 -51 -41 -141 -85 -205
-39 -59 -812 -841 -900 -912 -148 -118 -370 -157 -559 -98 -82 25 -177 84
-245 153 -177 177 -228 428 -135 665 38 96 88 156 370 438 l278 279 -10 44
c-15 66 -18 87 -23 138 -6 66 -6 240 0 279 3 17 7 45 9 60 6 44 38 165 48 185
34 65 -76 -36 -522 -480 -385 -384 -487 -494 -544 -587 -58 -94 -124 -262
-141 -354 -2 -15 -9 -49 -14 -77 -9 -47 -7 -291 2 -345 87 -480 454 -843 937
-926 56 -10 291 -11 345 -2 121 20 222 52 323 102 161 80 210 122 663 573 240
239 460 467 490 506 134 175 195 318 229 530 11 71 14 250 5 302 -3 17 -8 46
-11 65 -19 117 -82 281 -148 383 -20 32 -36 60 -36 62 0 9 -54 69 -135 151
-113 114 -260 208 -403 258 l-40 14 -119 -121z"/>
</g>
</svg>
